<?xml version="1.0" encoding="UTF-8"?>
<svg xmlns="http://www.w3.org/2000/svg" xmlns:xlink="http://www.w3.org/1999/xlink" viewBox="0 0 96 96" width="96px" height="96px">
<g id="surface11168576">
<path style=" stroke:none;fill-rule:nonzero;fill:rgb(100%,100%,100%);fill-opacity:1;" d="M 88 48 C 88 65.921875 76.238281 81.078125 60 86.160156 L 60 76 C 60 72.578125 58.558594 69.519531 56.28125 67.320312 C 66.761719 65.421875 72 59.320312 72 48 C 72 43.101562 71 39.21875 69.039062 36.199219 C 69.921875 32.78125 70.441406 27.921875 68 24 C 63.28125 24 59.980469 26.78125 58.039062 29.058594 C 55.140625 28.359375 51.800781 28 48 28 C 44.398438 28 41.078125 28.398438 38.121094 29.21875 C 36.199219 26.921875 32.839844 24 28 24 C 25.160156 28.558594 26.320312 33.480469 27.398438 36.238281 C 25.238281 39.261719 24 43.140625 24 48 C 24 59.320312 29.238281 65.421875 39.71875 67.320312 C 38.378906 68.621094 37.339844 70.199219 36.699219 72 L 32 72 C 29.121094 72 28 70.71875 26.460938 68.640625 C 24.921875 66.558594 23.261719 65.160156 21.28125 64.578125 C 20.21875 64.460938 19.5 65.320312 20.441406 66.078125 C 23.578125 68.339844 23.800781 72.039062 25.058594 74.460938 C 26.199219 76.640625 28.558594 78 31.21875 78 L 36 78 L 36 86.160156 C 19.761719 81.078125 8 65.921875 8 48 C 8 25.898438 25.898438 8 48 8 C 70.101562 8 88 25.898438 88 48 Z M 88 48 "/>
</g>
</svg>
